G04 #@! TF.GenerationSoftware,KiCad,Pcbnew,(5.1.2-1)-1*
G04 #@! TF.CreationDate,2019-10-15T21:13:19+02:00*
G04 #@! TF.ProjectId,tsuka60,7473756b-6136-4302-9e6b-696361645f70,rev?*
G04 #@! TF.SameCoordinates,Original*
G04 #@! TF.FileFunction,Profile,NP*
%FSLAX46Y46*%
G04 Gerber Fmt 4.6, Leading zero omitted, Abs format (unit mm)*
G04 Created by KiCad (PCBNEW (5.1.2-1)-1) date 2019-10-15 21:13:19*
%MOMM*%
%LPD*%
G04 APERTURE LIST*
%ADD10C,0.300000*%
G04 APERTURE END LIST*
D10*
X96831250Y-112243750D02*
X107031250Y-112243750D01*
X118531250Y-111743750D02*
G75*
G03X119031250Y-112243750I500000J0D01*
G01*
X107031250Y-112243750D02*
G75*
G03X107531250Y-111743750I0J500000D01*
G01*
X107531250Y-111743750D02*
X118531250Y-111743750D01*
X98631250Y-170143750D02*
G75*
G03X100031250Y-168743750I0J1400000D01*
G01*
X376031250Y-167343750D02*
X379831250Y-167343750D01*
X376031250Y-170143750D02*
X379831250Y-170143750D01*
X379831250Y-167343750D02*
X379831250Y-114243750D01*
X379831250Y-170143750D02*
X379831250Y-204843750D01*
X376031250Y-170143750D02*
G75*
G02X374631250Y-168743750I0J1400000D01*
G01*
X374631250Y-168743750D02*
G75*
G02X376031250Y-167343750I1400000J0D01*
G01*
X94831250Y-167343750D02*
X94831250Y-114243750D01*
X98631250Y-167343750D02*
X94831250Y-167343750D01*
X100031250Y-168743750D02*
G75*
G03X98631250Y-167343750I-1400000J0D01*
G01*
X94831250Y-170143750D02*
X98631250Y-170143750D01*
X94831250Y-204843750D02*
X94831250Y-170143750D01*
X379831250Y-114243750D02*
G75*
G03X377831250Y-112243750I-2000000J0D01*
G01*
X377831250Y-206843750D02*
G75*
G03X379831250Y-204843750I0J2000000D01*
G01*
X94831250Y-204843750D02*
G75*
G03X96831250Y-206843750I2000000J0D01*
G01*
X96831250Y-112243750D02*
G75*
G03X94831250Y-114243750I0J-2000000D01*
G01*
X377831250Y-112243750D02*
X119031250Y-112243750D01*
X96831250Y-206843750D02*
X377831250Y-206843750D01*
M02*
