M48
INCH
T1C0.0689
T2C0.1200
T3C0.1570
%
G90
G05
T1
X8.3937Y-4.7812
X8.7937Y-4.7812
X14.2062Y-7.0312
X14.6062Y-7.0312
X12.1437Y-4.7812
X12.5437Y-4.7812
X8.7687Y-7.0312
X9.1687Y-7.0312
X9.1437Y-5.5312
X9.5437Y-5.5312
X5.9562Y-7.7812
X6.3563Y-7.7812
X11.7687Y-7.0312
X12.1687Y-7.0312
X12.425Y-7.7812
X12.825Y-7.7812
X9.1437Y-7.7812
X9.5437Y-7.7812
X9.1437Y-6.2812
X9.5437Y-6.2812
X12.8937Y-5.5312
X13.2937Y-5.5312
X13.3625Y-7.7812
X13.7625Y-7.7812
X9.8937Y-4.7812
X10.2937Y-4.7812
X12.1437Y-7.7812
X12.5437Y-7.7812
X3.8937Y-4.7812
X4.2938Y-4.7812
X4.0812Y-7.0312
X4.4813Y-7.0312
X5.7687Y-7.0312
X6.1688Y-7.0312
X4.8438Y-5.3312
X4.8438Y-5.7313
X9.3312Y-6.2812
X9.7312Y-6.2812
X12.8937Y-4.7812
X13.2937Y-4.7812
X12.1437Y-5.5312
X12.5437Y-5.5312
X9.8937Y-5.5312
X10.2937Y-5.5312
X8.675Y-7.7812
X9.075Y-7.7812
X13.8438Y-5.3312
X13.8438Y-5.7313
X5.8625Y-7.7812
X6.2625Y-7.7812
X7.2687Y-7.0312
X7.6688Y-7.0312
X6.7062Y-6.2812
X7.1063Y-6.2812
X13.6437Y-7.7812
X14.0437Y-7.7812
X5.3937Y-5.5312
X5.7938Y-5.5312
X13.6437Y-4.7812
X14.0437Y-4.7812
X9.1437Y-7.7812
X9.5437Y-7.7812
X10.6437Y-5.5312
X11.0437Y-5.5312
X3.9875Y-7.7812
X4.3875Y-7.7812
X14.1125Y-6.2812
X14.5125Y-6.2812
X8.0187Y-7.0312
X8.4187Y-7.0312
X7.4562Y-7.7812
X7.8563Y-7.7812
X7.3625Y-7.7812
X7.7625Y-7.7812
X7.4562Y-6.2812
X7.8563Y-6.2812
X4.6437Y-4.7812
X5.0438Y-4.7812
X6.1437Y-5.5312
X6.5438Y-5.5312
X14.0187Y-4.7812
X14.4187Y-4.7812
X10.925Y-7.7812
X11.325Y-7.7812
X5.0187Y-7.0312
X5.4188Y-7.0312
X14.3Y-7.7812
X14.7Y-7.7812
X14.3937Y-5.5312
X14.7937Y-5.5312
X12.3312Y-7.7812
X12.7312Y-7.7812
X8.2062Y-6.2812
X8.6062Y-6.2812
X14.2062Y-7.7812
X14.6062Y-7.7812
X6.8937Y-5.5312
X7.2938Y-5.5312
X11.5812Y-6.2812
X11.9812Y-6.2812
X11.3937Y-5.5312
X11.7937Y-5.5312
X12.3312Y-6.2812
X12.7312Y-6.2812
X6.1437Y-4.7812
X6.5438Y-4.7812
X10.2687Y-7.0312
X10.6687Y-7.0312
X5.2062Y-6.2812
X5.6063Y-6.2812
X5.3937Y-4.7812
X5.7938Y-4.7812
X10.8312Y-7.7812
X11.2312Y-7.7812
X7.6437Y-5.5312
X8.0437Y-5.5312
X9.1437Y-7.0312
X9.5437Y-7.0312
X13.2687Y-7.0312
X13.6687Y-7.0312
X5.0187Y-7.7812
X5.4188Y-7.7812
X4.925Y-7.7812
X5.325Y-7.7812
X9.1437Y-7.7812
X9.5437Y-7.7812
X14.3937Y-7.7812
X14.7937Y-7.7812
X14.3937Y-4.7812
X14.7937Y-4.7812
X10.8312Y-6.2812
X11.2312Y-6.2812
X11.0187Y-7.0312
X11.4187Y-7.0312
X9.5187Y-7.0312
X9.9187Y-7.0312
X3.9875Y-6.2812
X4.3875Y-6.2812
X4.175Y-6.2812
X4.575Y-6.2812
X12.5187Y-7.0312
X12.9187Y-7.0312
X3.8937Y-5.5312
X4.2938Y-5.5312
X10.0812Y-6.2812
X10.4812Y-6.2812
X11.4875Y-7.7812
X11.8875Y-7.7812
X10.6437Y-4.7812
X11.0437Y-4.7812
X7.6437Y-4.7812
X8.0437Y-4.7812
X6.5187Y-7.0312
X6.9188Y-7.0312
X5.9562Y-6.2812
X6.3563Y-6.2812
X6.8937Y-4.7812
X7.2938Y-4.7812
X13.925Y-6.2812
X14.325Y-6.2812
X11.3937Y-4.7812
X11.7937Y-4.7812
X8.3937Y-5.5312
X8.7937Y-5.5312
X13.0812Y-6.2812
X13.4812Y-6.2812
X9.1437Y-4.7812
X9.5437Y-4.7812
X12.8937Y-7.7812
X13.2937Y-7.7812
X13.2687Y-7.7812
X13.6687Y-7.7812
X4.0812Y-7.7812
X4.4813Y-7.7812
T2
X6.9065Y-8.0563
X10.8435Y-8.0563
X8.8737Y-8.0563
X9.8138Y-8.0563
X6.9062Y-8.0563
X8.4062Y-8.0563
X7.0925Y-8.0563
X8.0325Y-8.0563
X13.7487Y-4.5062
X14.6887Y-4.5062
X10.655Y-8.0563
X11.595Y-8.0563
X10.2812Y-8.0563
X11.7812Y-8.0563
X8.8737Y-7.3062
X9.8138Y-7.3062
X7.0938Y-8.0563
X11.5938Y-8.0563
T3
X5.125Y-7.7812
X7.0938Y-7.4562
X9.3438Y-7.7812
X11.5938Y-7.4562
X14.5938Y-7.7812
X14.5938Y-4.7812
X11.0312Y-6.2812
X11.2188Y-7.0312
X9.7188Y-7.0312
X4.1875Y-6.2812
X4.375Y-6.2812
X12.7188Y-7.0312
X4.0938Y-5.5312
X10.2812Y-6.2812
X11.6875Y-7.7812
X10.8438Y-4.7812
X7.8438Y-4.7812
X6.7188Y-7.0312
X6.1562Y-6.2812
X7.0938Y-4.7812
X14.125Y-6.2812
X11.5938Y-4.7812
X8.5938Y-5.5312
X13.2812Y-6.2812
X9.3438Y-4.7812
X13.0938Y-7.7812
X13.4688Y-7.7812
X4.2812Y-7.7812
X8.5938Y-4.7812
X14.4062Y-7.0312
X12.3438Y-4.7812
X8.9688Y-7.0312
X9.3438Y-5.5312
X6.1562Y-7.7812
X11.9688Y-7.0312
X12.625Y-7.7812
X9.3438Y-7.7812
X9.3438Y-6.2812
X13.0938Y-5.5312
X13.5625Y-7.7812
X10.0938Y-4.7812
X12.3438Y-7.7812
X4.0938Y-4.7812
X4.2812Y-7.0312
X5.9688Y-7.0312
X4.8438Y-5.5312
X9.5312Y-6.2812
X13.0938Y-4.7812
X12.3438Y-5.5312
X10.0938Y-5.5312
X6.9065Y-7.4562
X8.875Y-7.7812
X10.8435Y-7.4562
X13.8438Y-5.5312
X6.0625Y-7.7812
X7.4688Y-7.0312
X6.9062Y-6.2812
X13.8438Y-7.7812
X5.5938Y-5.5312
X13.8438Y-4.7812
X8.8737Y-7.4562
X9.3438Y-7.7812
X9.8138Y-7.4562
X10.8438Y-5.5312
X4.1875Y-7.7812
X14.3125Y-6.2812
X8.2188Y-7.0312
X6.9062Y-7.4562
X7.6562Y-7.7812
X8.4062Y-7.4562
X7.0925Y-7.4562
X7.5625Y-7.7812
X8.0325Y-7.4562
X7.6562Y-6.2812
X4.8438Y-4.7812
X6.3438Y-5.5312
X13.7487Y-5.1063
X14.2188Y-4.7812
X14.6887Y-5.1063
X10.655Y-7.4562
X11.125Y-7.7812
X11.595Y-7.4562
X5.2188Y-7.0312
X14.5Y-7.7812
X14.5938Y-5.5312
X12.5312Y-7.7812
X8.4062Y-6.2812
X14.4062Y-7.7812
X7.0938Y-5.5312
X11.7812Y-6.2812
X11.5938Y-5.5312
X12.5312Y-6.2812
X6.3438Y-4.7812
X10.4688Y-7.0312
X5.4062Y-6.2812
X5.5938Y-4.7812
X10.2812Y-7.4562
X11.0312Y-7.7812
X11.7812Y-7.4562
X7.8438Y-5.5312
X8.8737Y-6.7062
X9.3438Y-7.0312
X9.8138Y-6.7062
X13.4688Y-7.0312
X5.2188Y-7.7812
T0
M30
