G04 #@! TF.GenerationSoftware,KiCad,Pcbnew,(5.1.2-1)-1*
G04 #@! TF.CreationDate,2020-04-18T15:07:41+02:00*
G04 #@! TF.ProjectId,tsuka60,7473756b-6136-4302-9e6b-696361645f70,rev?*
G04 #@! TF.SameCoordinates,Original*
G04 #@! TF.FileFunction,Legend,Top*
G04 #@! TF.FilePolarity,Positive*
%FSLAX46Y46*%
G04 Gerber Fmt 4.6, Leading zero omitted, Abs format (unit mm)*
G04 Created by KiCad (PCBNEW (5.1.2-1)-1) date 2020-04-18 15:07:41*
%MOMM*%
%LPD*%
G04 APERTURE LIST*
%ADD10C,2.501900*%
%ADD11C,4.089800*%
%ADD12C,1.852000*%
%ADD13O,1.802000X2.802000*%
%ADD14O,1.202000X1.752000*%
%ADD15C,3.150000*%
G04 APERTURE END LIST*
%LPC*%
D10*
X376031250Y-166092800D02*
X379831250Y-166092800D01*
X373380300Y-168743750D02*
G75*
G02X376031250Y-166092800I2650950J0D01*
G01*
X376031250Y-171394700D02*
G75*
G02X373380300Y-168743750I0J2650950D01*
G01*
X376031250Y-171394700D02*
X379881250Y-171394700D01*
X94831250Y-166092800D02*
X98631250Y-166092800D01*
X101282200Y-168743750D02*
G75*
G03X98631250Y-166092800I-2650950J0D01*
G01*
X98631250Y-171394700D02*
G75*
G03X101282200Y-168743750I0J2650950D01*
G01*
X94831250Y-171394700D02*
X98631250Y-171394700D01*
D11*
X108743750Y-178593750D03*
D12*
X103663750Y-178593750D03*
X113823750Y-178593750D03*
D11*
X237331250Y-121443750D03*
D12*
X232251250Y-121443750D03*
X242411250Y-121443750D03*
D11*
X103981250Y-121443750D03*
D12*
X98901250Y-121443750D03*
X109061250Y-121443750D03*
X128111250Y-121443750D03*
X117951250Y-121443750D03*
D11*
X123031250Y-121443750D03*
X142081250Y-121443750D03*
D12*
X137001250Y-121443750D03*
X147161250Y-121443750D03*
X166211250Y-121443750D03*
X156051250Y-121443750D03*
D11*
X161131250Y-121443750D03*
X180181250Y-121443750D03*
D12*
X175101250Y-121443750D03*
X185261250Y-121443750D03*
D11*
X199231250Y-121443750D03*
D12*
X194151250Y-121443750D03*
X204311250Y-121443750D03*
D11*
X218281250Y-121443750D03*
D12*
X213201250Y-121443750D03*
X223361250Y-121443750D03*
D11*
X256381250Y-121443750D03*
D12*
X251301250Y-121443750D03*
X261461250Y-121443750D03*
D11*
X275431250Y-121443750D03*
D12*
X270351250Y-121443750D03*
X280511250Y-121443750D03*
D11*
X294481250Y-121443750D03*
D12*
X289401250Y-121443750D03*
X299561250Y-121443750D03*
D11*
X313531250Y-121443750D03*
D12*
X308451250Y-121443750D03*
X318611250Y-121443750D03*
D11*
X332581250Y-121443750D03*
D12*
X327501250Y-121443750D03*
X337661250Y-121443750D03*
D11*
X351631250Y-121443750D03*
D12*
X346551250Y-121443750D03*
X356711250Y-121443750D03*
D11*
X370681250Y-121443750D03*
D12*
X365601250Y-121443750D03*
X375761250Y-121443750D03*
D11*
X103981250Y-140493750D03*
D12*
X98901250Y-140493750D03*
X109061250Y-140493750D03*
X128111250Y-140493750D03*
X117951250Y-140493750D03*
D11*
X123031250Y-140493750D03*
D12*
X147161250Y-140493750D03*
X137001250Y-140493750D03*
D11*
X142081250Y-140493750D03*
D12*
X166211250Y-140493750D03*
X156051250Y-140493750D03*
D11*
X161131250Y-140493750D03*
D12*
X185261250Y-140493750D03*
X175101250Y-140493750D03*
D11*
X180181250Y-140493750D03*
D12*
X204311250Y-140493750D03*
X194151250Y-140493750D03*
D11*
X199231250Y-140493750D03*
X218281250Y-140493750D03*
D12*
X213201250Y-140493750D03*
X223361250Y-140493750D03*
X242411250Y-140493750D03*
X232251250Y-140493750D03*
D11*
X237331250Y-140493750D03*
X256381250Y-140493750D03*
D12*
X251301250Y-140493750D03*
X261461250Y-140493750D03*
X280511250Y-140493750D03*
X270351250Y-140493750D03*
D11*
X275431250Y-140493750D03*
D12*
X299561250Y-140493750D03*
X289401250Y-140493750D03*
D11*
X294481250Y-140493750D03*
D12*
X318611250Y-140493750D03*
X308451250Y-140493750D03*
D11*
X313531250Y-140493750D03*
D12*
X337661250Y-140493750D03*
X327501250Y-140493750D03*
D11*
X332581250Y-140493750D03*
D12*
X356711250Y-140493750D03*
X346551250Y-140493750D03*
D11*
X351631250Y-140493750D03*
D12*
X375761250Y-140493750D03*
X365601250Y-140493750D03*
D11*
X370681250Y-140493750D03*
X137318750Y-159543750D03*
D12*
X132238750Y-159543750D03*
X142398750Y-159543750D03*
X161448750Y-159543750D03*
X151288750Y-159543750D03*
D11*
X156368750Y-159543750D03*
X175418750Y-159543750D03*
D12*
X170338750Y-159543750D03*
X180498750Y-159543750D03*
X199548750Y-159543750D03*
X189388750Y-159543750D03*
D11*
X194468750Y-159543750D03*
D12*
X218598750Y-159543750D03*
X208438750Y-159543750D03*
D11*
X213518750Y-159543750D03*
X280193750Y-159543750D03*
D12*
X275113750Y-159543750D03*
X285273750Y-159543750D03*
D11*
X299243750Y-159543750D03*
D12*
X294163750Y-159543750D03*
X304323750Y-159543750D03*
X323373750Y-159543750D03*
X313213750Y-159543750D03*
D11*
X318293750Y-159543750D03*
X337343750Y-159543750D03*
D12*
X332263750Y-159543750D03*
X342423750Y-159543750D03*
X137636250Y-178593750D03*
X127476250Y-178593750D03*
D11*
X132556250Y-178593750D03*
X151606250Y-178593750D03*
D12*
X146526250Y-178593750D03*
X156686250Y-178593750D03*
X175736250Y-178593750D03*
X165576250Y-178593750D03*
D11*
X170656250Y-178593750D03*
X189706250Y-178593750D03*
D12*
X184626250Y-178593750D03*
X194786250Y-178593750D03*
D11*
X208756250Y-178593750D03*
D12*
X203676250Y-178593750D03*
X213836250Y-178593750D03*
D11*
X265906250Y-178593750D03*
D12*
X260826250Y-178593750D03*
X270986250Y-178593750D03*
X290036250Y-178593750D03*
X279876250Y-178593750D03*
D11*
X284956250Y-178593750D03*
X304006250Y-178593750D03*
D12*
X298926250Y-178593750D03*
X309086250Y-178593750D03*
X328136250Y-178593750D03*
X317976250Y-178593750D03*
D11*
X323056250Y-178593750D03*
X342106250Y-178593750D03*
D12*
X337026250Y-178593750D03*
X347186250Y-178593750D03*
D11*
X111125000Y-159543750D03*
D12*
X106045000Y-159543750D03*
X116205000Y-159543750D03*
X370998750Y-178593750D03*
X360838750Y-178593750D03*
D11*
X365918750Y-178593750D03*
D13*
X117156250Y-113668750D03*
X109856250Y-113668750D03*
D14*
X115106250Y-118968750D03*
X114306250Y-117268750D03*
X113506250Y-118968750D03*
X112706250Y-117268750D03*
X111906250Y-118968750D03*
D11*
X237331250Y-178593750D03*
D12*
X232251250Y-178593750D03*
X242411250Y-178593750D03*
D15*
X225393250Y-185578750D03*
X249269250Y-185578750D03*
D11*
X225393250Y-170338750D03*
X249269250Y-170338750D03*
X227806250Y-178593750D03*
D12*
X222726250Y-178593750D03*
X232886250Y-178593750D03*
X251936250Y-178593750D03*
X241776250Y-178593750D03*
D11*
X246856250Y-178593750D03*
X363537500Y-159543750D03*
D12*
X358457500Y-159543750D03*
X368617500Y-159543750D03*
D11*
X361156250Y-121443750D03*
D12*
X356076250Y-121443750D03*
X366236250Y-121443750D03*
D15*
X349218250Y-114458750D03*
X373094250Y-114458750D03*
D11*
X349218250Y-129698750D03*
X373094250Y-129698750D03*
X261143750Y-159543750D03*
D12*
X256063750Y-159543750D03*
X266223750Y-159543750D03*
D11*
X237331250Y-159543750D03*
D12*
X232251250Y-159543750D03*
X242411250Y-159543750D03*
X111442500Y-159543750D03*
X101282500Y-159543750D03*
D11*
X106362500Y-159543750D03*
X358775000Y-159543750D03*
D12*
X353695000Y-159543750D03*
X363855000Y-159543750D03*
D11*
X108743750Y-197643750D03*
D12*
X103663750Y-197643750D03*
X113823750Y-197643750D03*
X137636250Y-197643750D03*
X127476250Y-197643750D03*
D11*
X132556250Y-197643750D03*
D12*
X161448750Y-197643750D03*
X151288750Y-197643750D03*
D11*
X156368750Y-197643750D03*
X237331250Y-197643750D03*
D12*
X232251250Y-197643750D03*
X242411250Y-197643750D03*
D15*
X180181250Y-204628750D03*
X294481250Y-204628750D03*
D11*
X180181250Y-189388750D03*
X294481250Y-189388750D03*
X318293750Y-197643750D03*
D12*
X313213750Y-197643750D03*
X323373750Y-197643750D03*
D11*
X342106250Y-197643750D03*
D12*
X337026250Y-197643750D03*
X347186250Y-197643750D03*
X370998750Y-197643750D03*
X360838750Y-197643750D03*
D11*
X365918750Y-197643750D03*
X106362500Y-197643750D03*
D12*
X101282500Y-197643750D03*
X111442500Y-197643750D03*
D11*
X103981250Y-197643750D03*
D12*
X109061250Y-197643750D03*
X98901250Y-197643750D03*
X135255000Y-197643750D03*
X125095000Y-197643750D03*
D11*
X130175000Y-197643750D03*
D12*
X117951250Y-197643750D03*
X128111250Y-197643750D03*
D11*
X123031250Y-197643750D03*
D12*
X159067500Y-197643750D03*
X148907500Y-197643750D03*
D11*
X153987500Y-197643750D03*
X142081250Y-197643750D03*
D12*
X147161250Y-197643750D03*
X137001250Y-197643750D03*
X156051250Y-197643750D03*
X166211250Y-197643750D03*
D11*
X161131250Y-197643750D03*
X192087500Y-197643750D03*
D12*
X187007500Y-197643750D03*
X197167500Y-197643750D03*
D15*
X180149500Y-204628750D03*
X204025500Y-204628750D03*
D11*
X180149500Y-189388750D03*
X204025500Y-189388750D03*
X194468750Y-197643750D03*
D12*
X189388750Y-197643750D03*
X199548750Y-197643750D03*
D15*
X175418750Y-204628750D03*
X213518750Y-204628750D03*
D11*
X175418750Y-189388750D03*
X213518750Y-189388750D03*
D12*
X185261250Y-197643750D03*
X175101250Y-197643750D03*
D11*
X180181250Y-197643750D03*
D12*
X187642500Y-197643750D03*
X177482500Y-197643750D03*
D11*
X182562500Y-197643750D03*
X220694250Y-189388750D03*
X196818250Y-189388750D03*
D15*
X220694250Y-204628750D03*
X196818250Y-204628750D03*
D12*
X213836250Y-197643750D03*
X203676250Y-197643750D03*
D11*
X208756250Y-197643750D03*
X206375000Y-197643750D03*
D12*
X201295000Y-197643750D03*
X211455000Y-197643750D03*
X232886250Y-197643750D03*
X222726250Y-197643750D03*
D11*
X227806250Y-197643750D03*
X237331250Y-197643750D03*
D12*
X232251250Y-197643750D03*
X242411250Y-197643750D03*
D15*
X225393250Y-204628750D03*
X249269250Y-204628750D03*
D11*
X225393250Y-189388750D03*
X249269250Y-189388750D03*
X246856250Y-197643750D03*
D12*
X241776250Y-197643750D03*
X251936250Y-197643750D03*
D11*
X265906250Y-197643750D03*
D12*
X260826250Y-197643750D03*
X270986250Y-197643750D03*
D15*
X253968250Y-204628750D03*
X277844250Y-204628750D03*
D11*
X253968250Y-189388750D03*
X277844250Y-189388750D03*
D12*
X273367500Y-197643750D03*
X263207500Y-197643750D03*
D11*
X268287500Y-197643750D03*
X294513000Y-189388750D03*
X270637000Y-189388750D03*
D15*
X294513000Y-204628750D03*
X270637000Y-204628750D03*
D12*
X287655000Y-197643750D03*
X277495000Y-197643750D03*
D11*
X282575000Y-197643750D03*
X299243750Y-189388750D03*
X261143750Y-189388750D03*
D15*
X299243750Y-204628750D03*
X261143750Y-204628750D03*
D12*
X285273750Y-197643750D03*
X275113750Y-197643750D03*
D11*
X280193750Y-197643750D03*
X294481250Y-197643750D03*
D12*
X289401250Y-197643750D03*
X299561250Y-197643750D03*
D11*
X292100000Y-197643750D03*
D12*
X287020000Y-197643750D03*
X297180000Y-197643750D03*
X308451250Y-197643750D03*
X318611250Y-197643750D03*
D11*
X313531250Y-197643750D03*
X320675000Y-197643750D03*
D12*
X315595000Y-197643750D03*
X325755000Y-197643750D03*
D11*
X332581250Y-197643750D03*
D12*
X337661250Y-197643750D03*
X327501250Y-197643750D03*
D11*
X344487500Y-197643750D03*
D12*
X339407500Y-197643750D03*
X349567500Y-197643750D03*
D11*
X351631250Y-197643750D03*
D12*
X356711250Y-197643750D03*
X346551250Y-197643750D03*
X373380000Y-197643750D03*
X363220000Y-197643750D03*
D11*
X368300000Y-197643750D03*
D12*
X365601250Y-197643750D03*
X375761250Y-197643750D03*
D11*
X370681250Y-197643750D03*
X196850000Y-197643750D03*
D12*
X201930000Y-197643750D03*
X191770000Y-197643750D03*
D15*
X208788000Y-204628750D03*
X184912000Y-204628750D03*
D11*
X208788000Y-189388750D03*
X184912000Y-189388750D03*
X265874500Y-189388750D03*
X289750500Y-189388750D03*
D15*
X265874500Y-204628750D03*
X289750500Y-204628750D03*
D12*
X272732500Y-197643750D03*
X282892500Y-197643750D03*
D11*
X277812500Y-197643750D03*
M02*
