M48
INCH
T1C0.0157
T2C0.0197
T3C0.0256
T4C0.0276
T5C0.0579
T6C0.0984
T7C0.0984
%
G90
G05
T1
X4.405Y-5.8322
X4.4375Y-4.9062
X4.5625Y-4.9062
X4.73Y-6.11
X4.73Y-6.155
X4.8378Y-5.1222
X5.0625Y-4.6562
X7.8418Y-7.9318
X8.41Y-5.9586
X8.98Y-6.57
X9.055Y-5.12
X9.055Y-5.71
X9.27Y-5.78
X9.2708Y-5.9765
X9.46Y-5.7491
X9.495Y-6.51
X9.565Y-7.33
X9.585Y-6.175
X9.655Y-5.121
X9.655Y-5.515
X9.655Y-7.21
X9.685Y-5.6
X9.695Y-7.935
X9.7502Y-7.9099
X9.7825Y-6.5775
X9.8125Y-7.0312
X9.8411Y-5.6
X9.845Y-5.395
X9.8755Y-6.488
X9.885Y-5.06
X9.925Y-7.18
X9.925Y-7.935
X9.9389Y-6.22
X10.0938Y-5.6562
X10.095Y-5.17
X10.115Y-5.8121
X10.12Y-6.485
X10.215Y-5.59
X10.2812Y-6.4688
X10.2812Y-7.75
X10.4688Y-4.7812
X10.47Y-5.655
X10.5494Y-7.3516
X10.58Y-7.325
X10.59Y-6.51
X11.0312Y-6.4375
X11.2188Y-7.4688
X11.64Y-7.295
X12.015Y-7.785
X12.3438Y-7.4688
X12.75Y-7.9375
T2
X4.6351Y-5.5175
X4.6616Y-5.4534
X4.6616Y-5.5815
X4.7256Y-5.4269
X4.7256Y-5.608
X4.7897Y-5.4534
X4.7897Y-5.5815
X4.8162Y-5.5175
T3
X13.9138Y-5.6113
X13.9187Y-5.4262
X13.9717Y-5.4269
X13.9717Y-5.608
X14.0288Y-5.4262
X14.0288Y-5.6113
T5
X4.1312Y-7.6812
X4.1828Y-7.6238
X4.3797Y-7.6041
X4.3812Y-7.5812
X11.4437Y-4.6812
X11.4953Y-4.6238
X11.6922Y-4.6041
X11.6937Y-4.5812
X11.0687Y-6.9312
X11.1203Y-6.8738
X11.3172Y-6.8541
X11.3187Y-6.8312
X10.8812Y-6.1812
X10.9328Y-6.1238
X11.1297Y-6.1041
X11.1312Y-6.0812
X7.6937Y-4.6812
X7.7453Y-4.6238
X7.9422Y-4.6041
X7.9437Y-4.5812
X14.35Y-7.6812
X14.4016Y-7.6238
X14.5984Y-7.6041
X14.6Y-7.5812
X13.1312Y-6.1812
X13.1828Y-6.1238
X13.3797Y-6.1041
X13.3812Y-6.0812
X5.0687Y-7.6812
X5.1203Y-7.6238
X5.3172Y-7.6041
X5.3187Y-7.5812
X5.4437Y-4.6812
X5.4953Y-4.6238
X5.6922Y-4.6041
X5.6937Y-4.5812
X14.2562Y-7.6812
X14.3078Y-7.6238
X14.5047Y-7.6041
X14.5062Y-7.5812
X7.6937Y-5.4312
X7.7453Y-5.3738
X7.9422Y-5.3541
X7.9437Y-5.3312
X13.6937Y-4.6812
X13.7453Y-4.6238
X13.9422Y-4.6041
X13.9437Y-4.5812
X8.4437Y-4.6812
X8.4953Y-4.6238
X8.6922Y-4.6041
X8.6937Y-4.5812
X6.0062Y-6.1812
X6.0578Y-6.1238
X6.2547Y-6.1041
X6.2562Y-6.0812
X4.0375Y-7.6812
X4.0891Y-7.6238
X4.2859Y-7.6041
X4.2875Y-7.5812
X10.8812Y-7.6812
X10.9328Y-7.6238
X11.1297Y-7.6041
X11.1312Y-7.5812
X10.3187Y-6.9312
X10.3703Y-6.8738
X10.5672Y-6.8541
X10.5687Y-6.8312
X14.2562Y-6.9312
X14.3078Y-6.8738
X14.5047Y-6.8541
X14.5062Y-6.8312
X7.4125Y-7.6812
X7.4641Y-7.6238
X7.6609Y-7.6041
X7.6625Y-7.5812
X10.1312Y-6.1812
X10.1828Y-6.1238
X10.3797Y-6.1041
X10.3812Y-6.0812
X8.0687Y-6.9312
X8.1203Y-6.8738
X8.3172Y-6.8541
X8.3187Y-6.8312
X4.6937Y-4.6812
X4.7453Y-4.6238
X4.9422Y-4.6041
X4.9437Y-4.5812
X13.3187Y-6.9312
X13.3703Y-6.8738
X13.5672Y-6.8541
X13.5687Y-6.8312
X6.9437Y-5.4312
X6.9953Y-5.3738
X7.1922Y-5.3541
X7.1937Y-5.3312
X3.9438Y-4.6812
X3.9953Y-4.6238
X4.1922Y-4.6041
X4.1937Y-4.5812
X9.1937Y-7.6812
X9.2453Y-7.6238
X9.4422Y-7.6041
X9.4437Y-7.5812
X12.475Y-7.6812
X12.5266Y-7.6238
X12.7234Y-7.6041
X12.725Y-7.5812
X10.6937Y-4.6812
X10.7453Y-4.6238
X10.9422Y-4.6041
X10.9437Y-4.5812
X12.1937Y-4.6812
X12.2453Y-4.6238
X12.4422Y-4.6041
X12.4437Y-4.5812
X5.2562Y-6.1812
X5.3078Y-6.1238
X5.5047Y-6.1041
X5.5062Y-6.0812
X10.6937Y-5.4312
X10.7453Y-5.3738
X10.9422Y-5.3541
X10.9437Y-5.3312
X9.1937Y-7.6812
X9.2453Y-7.6238
X9.4422Y-7.6041
X9.4437Y-7.5812
X12.2438Y-7.9813
X12.2453Y-7.9584
X12.4422Y-7.9387
X12.4938Y-7.8812
X13.4125Y-7.6812
X13.4641Y-7.6238
X13.6609Y-7.6041
X13.6625Y-7.5812
X7.3187Y-6.9312
X7.3703Y-6.8738
X7.5672Y-6.8541
X7.5687Y-6.8312
X10.975Y-7.6812
X11.0266Y-7.6238
X11.2234Y-7.6041
X11.225Y-7.5812
X9.9437Y-4.6812
X9.9953Y-4.6238
X10.1922Y-4.6041
X10.1937Y-4.5812
X4.1312Y-6.9312
X4.1828Y-6.8738
X4.3797Y-6.8541
X4.3812Y-6.8312
X12.3812Y-7.6812
X12.4328Y-7.6238
X12.6297Y-7.6041
X12.6312Y-7.5812
X9.1937Y-6.9312
X9.2453Y-6.8738
X9.4422Y-6.8541
X9.4437Y-6.8312
X14.4437Y-5.4312
X14.4953Y-5.3738
X14.6922Y-5.3541
X14.6937Y-5.3312
X8.2562Y-6.1812
X8.3078Y-6.1238
X8.5047Y-6.1041
X8.5062Y-6.0812
X4.9437Y-5.3812
X5.0012Y-5.4328
X5.0209Y-5.6297
X5.0438Y-5.6312
X9.9437Y-5.4312
X9.9953Y-5.3738
X10.1922Y-5.3541
X10.1937Y-5.3312
X6.1937Y-5.4312
X6.2453Y-5.3738
X6.4422Y-5.3541
X6.4437Y-5.3312
X7.5062Y-7.6812
X7.5578Y-7.6238
X7.7547Y-7.6041
X7.7562Y-7.5812
X7.5062Y-6.1812
X7.5578Y-6.1238
X7.7547Y-6.1041
X7.7562Y-6.0812
X12.5687Y-6.9312
X12.6203Y-6.8738
X12.8172Y-6.8541
X12.8187Y-6.8312
X4.225Y-6.1812
X4.2766Y-6.1238
X4.4734Y-6.1041
X4.475Y-6.0812
X14.4938Y-7.9813
X14.4953Y-7.9584
X14.6922Y-7.9387
X14.7438Y-7.8812
X5.4437Y-5.4312
X5.4953Y-5.3738
X5.6922Y-5.3541
X5.6937Y-5.3312
X6.5687Y-6.9312
X6.6203Y-6.8738
X6.8172Y-6.8541
X6.8187Y-6.8312
X12.3812Y-6.1812
X12.4328Y-6.1238
X12.6297Y-6.1041
X12.6312Y-6.0812
X9.1937Y-5.4312
X9.2453Y-5.3738
X9.4422Y-5.3541
X9.4437Y-5.3312
X5.8187Y-6.9312
X5.8703Y-6.8738
X6.0672Y-6.8541
X6.0687Y-6.8312
X8.725Y-7.6812
X8.7766Y-7.6238
X8.9734Y-7.6041
X8.975Y-7.5812
X14.1625Y-6.1812
X14.2141Y-6.1238
X14.4109Y-6.1041
X14.4125Y-6.0812
X13.6437Y-5.4312
X13.6666Y-5.4328
X13.6863Y-5.6297
X13.7438Y-5.6812
X3.9438Y-5.4312
X3.9953Y-5.3738
X4.1922Y-5.3541
X4.1937Y-5.3312
X11.8187Y-6.9312
X11.8703Y-6.8738
X12.0672Y-6.8541
X12.0687Y-6.8312
X11.6312Y-6.1812
X11.6828Y-6.1238
X11.8797Y-6.1041
X11.8812Y-6.0812
X4.975Y-7.6812
X5.0266Y-7.6238
X5.2234Y-7.6041
X5.225Y-7.5812
X13.7438Y-7.9813
X13.7453Y-7.9584
X13.9422Y-7.9387
X13.9938Y-7.8812
X5.0687Y-6.9312
X5.1203Y-6.8738
X5.3172Y-6.8541
X5.3187Y-6.8312
X12.9938Y-7.9813
X12.9953Y-7.9584
X13.1922Y-7.9387
X13.2438Y-7.8812
X6.0062Y-7.6812
X6.0578Y-7.6238
X6.2547Y-7.6041
X6.2562Y-7.5812
X11.4437Y-5.4312
X11.4953Y-5.3738
X11.6922Y-5.3541
X11.6937Y-5.3312
X8.4437Y-5.4312
X8.4953Y-5.3738
X8.6922Y-5.3541
X8.6937Y-5.3312
X12.9437Y-5.4312
X12.9953Y-5.3738
X13.1922Y-5.3541
X13.1937Y-5.3312
X9.1937Y-4.6812
X9.2453Y-4.6238
X9.4422Y-4.6041
X9.4437Y-4.5812
X12.1937Y-5.4312
X12.2453Y-5.3738
X12.4422Y-5.3541
X12.4437Y-5.3312
X6.7562Y-6.1812
X6.8078Y-6.1238
X7.0047Y-6.1041
X7.0062Y-6.0812
X11.5375Y-7.6812
X11.5891Y-7.6238
X11.7859Y-7.6041
X11.7875Y-7.5812
X5.9125Y-7.6812
X5.9641Y-7.6238
X6.1609Y-7.6041
X6.1625Y-7.5812
X14.4437Y-4.6812
X14.4953Y-4.6238
X14.6922Y-4.6041
X14.6937Y-4.5812
X9.2438Y-7.9813
X9.2453Y-7.9584
X9.4422Y-7.9387
X9.4938Y-7.8812
X6.9437Y-4.6812
X6.9953Y-4.6238
X7.1922Y-4.6041
X7.1937Y-4.5812
X13.3187Y-7.6812
X13.3703Y-7.6238
X13.5672Y-7.6041
X13.5687Y-7.5812
X12.9437Y-4.6812
X12.9953Y-4.6238
X13.1922Y-4.6041
X13.1937Y-4.5812
X6.1937Y-4.6812
X6.2453Y-4.6238
X6.4422Y-4.6041
X6.4437Y-4.5812
X9.1937Y-6.1812
X9.2453Y-6.1238
X9.4422Y-6.1041
X9.4437Y-6.0812
T7
X4.7256Y-5.5175
T4
G00X4.325Y-4.4515
M15
G01X4.325Y-4.4988
M16
G05
G00X4.4058Y-4.674
M15
G01X4.4058Y-4.674
M16
G05
G00X4.4373Y-4.6267
M15
G01X4.4373Y-4.6267
M16
G05
G00X4.4688Y-4.674
M15
G01X4.4688Y-4.674
M16
G05
G00X4.5002Y-4.6267
M15
G01X4.5002Y-4.6267
M16
G05
G00X4.5317Y-4.674
M15
G01X4.5317Y-4.674
M16
G05
G00X4.6125Y-4.4515
M15
G01X4.6125Y-4.4988
M16
G05
T6
G00X11.1843Y-7.7734
M15
G01X11.2828Y-7.7734
M16
G05
G00X13.9225Y-5.5175
M15
G01X14.021Y-5.5175
M16
G05
T0
M30
